# Blender v2.79 (sub 0) OBJ File: 'testscene3_emissivesurface.blend'
# www.blender.org
o Plane.003
v 2.477564 4.448072 0.828978
v 3.455287 3.109090 0.828978
v 3.455287 3.109090 -0.828978
vn 0.8076 0.5897 0.0000
s off
f 1//1 2//1 3//1
o Plane.002
v -2.951795 3.673974 1.975075
v -5.048205 0.326026 1.975075
v -2.951795 3.673974 -1.975075
v -5.048205 0.326026 -1.975075
vn 0.8475 -0.5307 0.0000
s off
f 5//2 6//2 4//2
f 5//2 7//2 6//2
o Plane.001
v -0.000000 6.083488 3.083488
v 0.000000 -0.083488 3.083488
v -0.000000 6.083488 -3.083488
v 0.000000 -0.083488 -3.083488
vn 1.0000 0.0000 0.0000
s off
f 9//3 10//3 8//3
f 9//3 11//3 10//3
o Plane
v -3.019879 -2.000000 3.019879
v 3.019879 -2.000000 3.019879
v -3.019879 -2.000000 -3.019879
v 3.019879 -2.000000 -3.019879
vn 0.0000 1.0000 0.0000
s off
f 13//4 14//4 12//4
f 13//4 15//4 14//4
